<svg width="90" height="53" viewBox="0 0 90 53" fill="none" xmlns="http://www.w3.org/2000/svg">
<path d="M69.9432 52.3809C74.7741 52.3809 78.9453 48.9985 79.9434 44.2718L80.5511 41.3937H26.4753C25.9108 41.3937 25.4532 41.8513 25.4532 42.4158V44.1113C25.4532 44.9604 24.478 45.4392 23.8062 44.9201L19.519 41.6071C19.3401 41.4688 19.1203 41.3937 18.8941 41.3937H2.9837L0 52.381L69.9432 52.3809Z" fill="#5076FF"/>
<path d="M26.4753 31.1731H82.7092L83.831 25.8603L84.8938 20.9524L72.8218 20.9524C72.5956 20.9524 72.3758 21.0274 72.1968 21.1658L67.9802 24.4243C67.3083 24.9435 66.3331 24.4646 66.3331 23.6156V21.9745C66.3331 21.41 65.8755 20.9524 65.3111 20.9524L8.4898 20.9524L7.11232 26.1905L5.75924 31.1731H19.3066C19.5285 31.1731 19.7445 31.1008 19.9217 30.9673L23.816 28.0327C24.4895 27.5252 25.4532 28.0057 25.4532 28.849V30.151C25.4532 30.7155 25.9108 31.1731 26.4753 31.1731Z" fill="#5076FF"/>
<path d="M11.1776 10.7317L11.9956 7.62128C13.1765 3.13038 17.2366 6.02173e-06 21.8802 5.63441e-06L89.4309 0L87.107 10.7317L72.5519 10.7317C72.33 10.7317 72.1141 10.6595 71.9368 10.5259L67.9703 7.53699C67.2968 7.02949 66.3331 7.50996 66.3331 8.35325V9.70967C66.3331 10.2741 65.8755 10.7317 65.3111 10.7317L11.1776 10.7317Z" fill="#5076FF"/>
</svg>
