<svg width="80" height="80" viewBox="0 0 80 80" fill="none" xmlns="http://www.w3.org/2000/svg">
<path fill-rule="evenodd" clip-rule="evenodd" d="M72.0291 71.1256C72.9098 70.2472 72.9184 68.8275 72.0482 67.9547L51.4483 47.291L73.4306 47.2329C74.6686 47.2272 75.6769 46.2188 75.6826 44.9804C75.6882 43.7421 74.6892 42.7429 73.4512 42.7486L46.0679 42.8314C45.4734 42.8342 44.9021 43.073 44.4798 43.4955C44.0575 43.9179 43.8187 44.4893 43.8159 45.084L43.7303 73.0641C43.7246 74.3025 44.7237 75.3017 45.9617 75.296C47.1998 75.2903 48.208 74.2818 48.2137 73.0435L48.2743 50.4873L68.8589 71.1357C69.7291 72.0086 71.1484 72.004 72.0291 71.1256Z" fill="white"/>
<path fill-rule="evenodd" clip-rule="evenodd" d="M7.56561 71.1256C6.68491 70.2472 6.67636 68.8275 7.54651 67.9547L28.1464 47.291L6.16417 47.2329C4.92613 47.2272 3.91787 46.2188 3.91217 44.9804C3.90648 43.7421 4.90549 42.7429 6.14354 42.7486L33.5268 42.8314C34.1213 42.8342 34.6926 43.073 35.1149 43.4955C35.5373 43.9179 35.7761 44.4893 35.7788 45.084L35.8644 73.0641C35.8701 74.3025 34.8711 75.3017 33.633 75.296C32.395 75.2903 31.3867 74.2818 31.381 73.0435L31.3204 50.4873L10.7358 71.1357C9.86564 72.0086 8.4463 72.004 7.56561 71.1256Z" fill="white"/>
<path fill-rule="evenodd" clip-rule="evenodd" d="M45.7472 33.9874C44.8665 33.109 44.858 31.6893 45.7282 30.8165L66.328 10.1528L44.3458 10.0948C43.1078 10.0891 42.0995 9.08058 42.0938 7.84226C42.0881 6.60393 43.0871 5.60469 44.3252 5.61038L71.7084 5.69327C72.303 5.696 72.8742 5.93486 73.2966 6.35729C73.7189 6.77971 73.9577 7.3511 73.9604 7.94577L74.046 35.9259C74.0517 37.1643 73.0527 38.1635 71.8147 38.1578C70.5766 38.1521 69.5684 37.1436 69.5627 35.9053L69.502 13.3491L48.9174 33.9975C48.0473 34.8704 46.6279 34.8659 45.7472 33.9874Z" fill="#FF1616"/>
<path fill-rule="evenodd" clip-rule="evenodd" d="M7.56561 6.65905C6.68491 7.53747 6.67636 8.95715 7.54651 9.82999L28.1464 30.4937L6.16417 30.5517C4.92613 30.5574 3.91787 31.5659 3.91217 32.8042C3.90648 34.0426 4.90549 35.0418 6.14354 35.0361L33.5268 34.9532C34.1213 34.9505 34.6926 34.7116 35.1149 34.2892C35.5373 33.8668 35.7761 33.2954 35.7788 32.7007L35.8644 4.72054C35.8701 3.48222 34.8711 2.48298 33.633 2.48867C32.395 2.49437 31.3867 3.50285 31.381 4.74118L31.3204 27.2973L10.7358 6.64896C9.86564 5.77612 8.4463 5.78063 7.56561 6.65905Z" fill="white"/>
<path d="M43.1875 38C43.1875 39.7604 41.7604 41.1875 40 41.1875C38.2396 41.1875 36.8125 39.7604 36.8125 38C36.8125 36.2396 38.2396 34.8125 40 34.8125C41.7604 34.8125 43.1875 36.2396 43.1875 38Z" fill="white" stroke="white" stroke-width="3"/>
</svg>
